<mxfile host="app.diagrams.net" modified="2024-02-02T04:05:40.883Z" agent="Mozilla/5.0 (Windows NT 10.0; Win64; x64) AppleWebKit/537.36 (KHTML, like Gecko) Chrome/121.0.0.0 Safari/537.36" etag="iPnxaKJ-EoYqhrrXUXzv" version="23.0.2" type="github">
  <diagram name="Page-1" id="6K0oyNGVvTFTwKE0ccfs">
    <mxGraphModel dx="1259" dy="702" grid="1" gridSize="10" guides="1" tooltips="1" connect="1" arrows="1" fold="1" page="1" pageScale="1" pageWidth="850" pageHeight="1100" math="0" shadow="0">
      <root>
        <mxCell id="0" />
        <mxCell id="1" parent="0" />
        <mxCell id="59bPoHvH-pMukN5RrYKX-1" value="" style="rounded=0;whiteSpace=wrap;html=1;" vertex="1" parent="1">
          <mxGeometry x="280" y="120" width="320" height="520" as="geometry" />
        </mxCell>
        <mxCell id="59bPoHvH-pMukN5RrYKX-2" value="Perpus Digital" style="text;html=1;strokeColor=none;fillColor=none;align=center;verticalAlign=middle;whiteSpace=wrap;rounded=0;" vertex="1" parent="1">
          <mxGeometry x="400" y="140" width="80" height="30" as="geometry" />
        </mxCell>
        <mxCell id="59bPoHvH-pMukN5RrYKX-3" value="From Pengunjung" style="ellipse;whiteSpace=wrap;html=1;" vertex="1" parent="1">
          <mxGeometry x="355" y="190" width="170" height="80" as="geometry" />
        </mxCell>
        <mxCell id="59bPoHvH-pMukN5RrYKX-4" value="Pencarian Buku" style="ellipse;whiteSpace=wrap;html=1;" vertex="1" parent="1">
          <mxGeometry x="355" y="290" width="170" height="80" as="geometry" />
        </mxCell>
        <mxCell id="59bPoHvH-pMukN5RrYKX-6" value="Detail Buku" style="ellipse;whiteSpace=wrap;html=1;" vertex="1" parent="1">
          <mxGeometry x="355" y="390" width="170" height="80" as="geometry" />
        </mxCell>
        <mxCell id="59bPoHvH-pMukN5RrYKX-8" value="Laporan Statistik" style="ellipse;whiteSpace=wrap;html=1;" vertex="1" parent="1">
          <mxGeometry x="355" y="490" width="170" height="80" as="geometry" />
        </mxCell>
        <mxCell id="59bPoHvH-pMukN5RrYKX-10" value="pengujung" style="shape=umlActor;verticalLabelPosition=bottom;verticalAlign=top;html=1;outlineConnect=0;" vertex="1" parent="1">
          <mxGeometry x="40" y="270" width="100" height="180" as="geometry" />
        </mxCell>
        <mxCell id="59bPoHvH-pMukN5RrYKX-12" value="" style="endArrow=none;html=1;rounded=0;entryX=0;entryY=0.5;entryDx=0;entryDy=0;" edge="1" parent="1" target="59bPoHvH-pMukN5RrYKX-3">
          <mxGeometry width="50" height="50" relative="1" as="geometry">
            <mxPoint x="150" y="310" as="sourcePoint" />
            <mxPoint x="450" y="340" as="targetPoint" />
            <Array as="points">
              <mxPoint x="240" y="230" />
            </Array>
          </mxGeometry>
        </mxCell>
        <mxCell id="59bPoHvH-pMukN5RrYKX-13" value="" style="endArrow=none;html=1;rounded=0;entryX=0;entryY=0.5;entryDx=0;entryDy=0;" edge="1" parent="1" target="59bPoHvH-pMukN5RrYKX-4">
          <mxGeometry width="50" height="50" relative="1" as="geometry">
            <mxPoint x="170" y="340" as="sourcePoint" />
            <mxPoint x="450" y="340" as="targetPoint" />
          </mxGeometry>
        </mxCell>
        <mxCell id="59bPoHvH-pMukN5RrYKX-14" value="" style="endArrow=none;html=1;rounded=0;entryX=0;entryY=0.5;entryDx=0;entryDy=0;" edge="1" parent="1" target="59bPoHvH-pMukN5RrYKX-6">
          <mxGeometry width="50" height="50" relative="1" as="geometry">
            <mxPoint x="160" y="360" as="sourcePoint" />
            <mxPoint x="450" y="340" as="targetPoint" />
          </mxGeometry>
        </mxCell>
        <mxCell id="59bPoHvH-pMukN5RrYKX-15" value="pustakawan" style="shape=umlActor;verticalLabelPosition=bottom;verticalAlign=top;html=1;outlineConnect=0;" vertex="1" parent="1">
          <mxGeometry x="730" y="270" width="100" height="180" as="geometry" />
        </mxCell>
        <mxCell id="59bPoHvH-pMukN5RrYKX-16" value="" style="endArrow=none;html=1;rounded=0;entryX=1;entryY=0.5;entryDx=0;entryDy=0;" edge="1" parent="1" target="59bPoHvH-pMukN5RrYKX-3">
          <mxGeometry width="50" height="50" relative="1" as="geometry">
            <mxPoint x="720" y="300" as="sourcePoint" />
            <mxPoint x="450" y="340" as="targetPoint" />
            <Array as="points">
              <mxPoint x="650" y="230" />
            </Array>
          </mxGeometry>
        </mxCell>
        <mxCell id="59bPoHvH-pMukN5RrYKX-17" value="" style="endArrow=none;html=1;rounded=0;entryX=1;entryY=0.5;entryDx=0;entryDy=0;" edge="1" parent="1" target="59bPoHvH-pMukN5RrYKX-4">
          <mxGeometry width="50" height="50" relative="1" as="geometry">
            <mxPoint x="690" y="330" as="sourcePoint" />
            <mxPoint x="450" y="340" as="targetPoint" />
          </mxGeometry>
        </mxCell>
        <mxCell id="59bPoHvH-pMukN5RrYKX-18" value="" style="endArrow=none;html=1;rounded=0;exitX=1;exitY=0.5;exitDx=0;exitDy=0;" edge="1" parent="1" source="59bPoHvH-pMukN5RrYKX-6">
          <mxGeometry width="50" height="50" relative="1" as="geometry">
            <mxPoint x="400" y="390" as="sourcePoint" />
            <mxPoint x="690" y="360" as="targetPoint" />
          </mxGeometry>
        </mxCell>
        <mxCell id="59bPoHvH-pMukN5RrYKX-19" value="" style="endArrow=none;html=1;rounded=0;exitX=1;exitY=0.5;exitDx=0;exitDy=0;" edge="1" parent="1" source="59bPoHvH-pMukN5RrYKX-8">
          <mxGeometry width="50" height="50" relative="1" as="geometry">
            <mxPoint x="400" y="390" as="sourcePoint" />
            <mxPoint x="720" y="380" as="targetPoint" />
          </mxGeometry>
        </mxCell>
      </root>
    </mxGraphModel>
  </diagram>
</mxfile>
